<mxfile host="app.diagrams.net" modified="2023-05-23T20:45:31.579Z" agent="Mozilla/5.0 (Windows NT 10.0; Win64; x64) AppleWebKit/537.36 (KHTML, like Gecko) Chrome/113.0.0.0 Safari/537.36" etag="o5A42_Qzi1zGvBYFX0WT" version="21.3.3" type="device">
  <diagram name="Página-1" id="As_zGKH7TZlCXdzUSuGZ">
    <mxGraphModel dx="4742" dy="-373" grid="1" gridSize="10" guides="1" tooltips="1" connect="1" arrows="1" fold="1" page="1" pageScale="1" pageWidth="827" pageHeight="1169" math="0" shadow="0">
      <root>
        <mxCell id="0" />
        <mxCell id="1" parent="0" />
        <mxCell id="_FOaf6VlmmrGsk4NCt8F-1" value=":Realizar Busqueda" style="shape=umlLifeline;perimeter=lifelinePerimeter;whiteSpace=wrap;html=1;container=1;dropTarget=0;collapsible=0;recursiveResize=0;outlineConnect=0;portConstraint=eastwest;newEdgeStyle={&quot;edgeStyle&quot;:&quot;elbowEdgeStyle&quot;,&quot;elbow&quot;:&quot;vertical&quot;,&quot;curved&quot;:0,&quot;rounded&quot;:0};" vertex="1" parent="1">
          <mxGeometry x="-3082" y="2120" width="110" height="280" as="geometry" />
        </mxCell>
        <mxCell id="_FOaf6VlmmrGsk4NCt8F-2" value="" style="html=1;points=[];perimeter=orthogonalPerimeter;outlineConnect=0;targetShapes=umlLifeline;portConstraint=eastwest;newEdgeStyle={&quot;edgeStyle&quot;:&quot;elbowEdgeStyle&quot;,&quot;elbow&quot;:&quot;vertical&quot;,&quot;curved&quot;:0,&quot;rounded&quot;:0};" vertex="1" parent="_FOaf6VlmmrGsk4NCt8F-1">
          <mxGeometry x="50" y="60" width="10" height="40" as="geometry" />
        </mxCell>
        <mxCell id="_FOaf6VlmmrGsk4NCt8F-3" style="edgeStyle=orthogonalEdgeStyle;rounded=0;orthogonalLoop=1;jettySize=auto;html=1;" edge="1" parent="1" source="_FOaf6VlmmrGsk4NCt8F-12" target="_FOaf6VlmmrGsk4NCt8F-2">
          <mxGeometry relative="1" as="geometry">
            <mxPoint x="-3242" y="2295.032258064516" as="sourcePoint" />
            <Array as="points">
              <mxPoint x="-3112" y="2190" />
              <mxPoint x="-3112" y="2190" />
            </Array>
          </mxGeometry>
        </mxCell>
        <mxCell id="_FOaf6VlmmrGsk4NCt8F-4" value="Base de datos de la tienda" style="shape=umlLifeline;perimeter=lifelinePerimeter;whiteSpace=wrap;html=1;container=1;dropTarget=0;collapsible=0;recursiveResize=0;outlineConnect=0;portConstraint=eastwest;newEdgeStyle={&quot;edgeStyle&quot;:&quot;elbowEdgeStyle&quot;,&quot;elbow&quot;:&quot;vertical&quot;,&quot;curved&quot;:0,&quot;rounded&quot;:0};" vertex="1" parent="1">
          <mxGeometry x="-2906" y="2120" width="100" height="280" as="geometry" />
        </mxCell>
        <mxCell id="_FOaf6VlmmrGsk4NCt8F-5" value="" style="html=1;points=[];perimeter=orthogonalPerimeter;outlineConnect=0;targetShapes=umlLifeline;portConstraint=eastwest;newEdgeStyle={&quot;edgeStyle&quot;:&quot;elbowEdgeStyle&quot;,&quot;elbow&quot;:&quot;vertical&quot;,&quot;curved&quot;:0,&quot;rounded&quot;:0};" vertex="1" parent="_FOaf6VlmmrGsk4NCt8F-4">
          <mxGeometry x="45" y="80" width="10" height="60" as="geometry" />
        </mxCell>
        <mxCell id="_FOaf6VlmmrGsk4NCt8F-6" style="edgeStyle=elbowEdgeStyle;rounded=0;orthogonalLoop=1;jettySize=auto;html=1;elbow=vertical;curved=0;" edge="1" parent="1" source="_FOaf6VlmmrGsk4NCt8F-2" target="_FOaf6VlmmrGsk4NCt8F-5">
          <mxGeometry relative="1" as="geometry">
            <Array as="points">
              <mxPoint x="-2952" y="2210" />
            </Array>
          </mxGeometry>
        </mxCell>
        <mxCell id="_FOaf6VlmmrGsk4NCt8F-7" value="Acceso a búsqueda" style="text;html=1;strokeColor=none;fillColor=none;align=center;verticalAlign=middle;whiteSpace=wrap;rounded=0;" vertex="1" parent="1">
          <mxGeometry x="-3208.5" y="2160" width="141" height="30" as="geometry" />
        </mxCell>
        <mxCell id="_FOaf6VlmmrGsk4NCt8F-8" value="Ejecutar patrón de búsqueda" style="text;html=1;strokeColor=none;fillColor=none;align=center;verticalAlign=middle;whiteSpace=wrap;rounded=0;" vertex="1" parent="1">
          <mxGeometry x="-3022" y="2179" width="141" height="30" as="geometry" />
        </mxCell>
        <mxCell id="_FOaf6VlmmrGsk4NCt8F-9" value=":Listado Respuesta" style="shape=umlLifeline;perimeter=lifelinePerimeter;whiteSpace=wrap;html=1;container=1;dropTarget=0;collapsible=0;recursiveResize=0;outlineConnect=0;portConstraint=eastwest;newEdgeStyle={&quot;edgeStyle&quot;:&quot;elbowEdgeStyle&quot;,&quot;elbow&quot;:&quot;vertical&quot;,&quot;curved&quot;:0,&quot;rounded&quot;:0};" vertex="1" parent="1">
          <mxGeometry x="-2762" y="2120" width="100" height="280" as="geometry" />
        </mxCell>
        <mxCell id="_FOaf6VlmmrGsk4NCt8F-10" value="" style="html=1;points=[];perimeter=orthogonalPerimeter;outlineConnect=0;targetShapes=umlLifeline;portConstraint=eastwest;newEdgeStyle={&quot;edgeStyle&quot;:&quot;elbowEdgeStyle&quot;,&quot;elbow&quot;:&quot;vertical&quot;,&quot;curved&quot;:0,&quot;rounded&quot;:0};" vertex="1" parent="_FOaf6VlmmrGsk4NCt8F-9">
          <mxGeometry x="44" y="110" width="10" height="100" as="geometry" />
        </mxCell>
        <mxCell id="_FOaf6VlmmrGsk4NCt8F-11" value="Resultado de búsqueda" style="text;html=1;strokeColor=none;fillColor=none;align=center;verticalAlign=middle;whiteSpace=wrap;rounded=0;" vertex="1" parent="1">
          <mxGeometry x="-2832" y="2220" width="100" height="30" as="geometry" />
        </mxCell>
        <mxCell id="_FOaf6VlmmrGsk4NCt8F-12" value="" style="shape=umlLifeline;perimeter=lifelinePerimeter;whiteSpace=wrap;html=1;container=1;dropTarget=0;collapsible=0;recursiveResize=0;outlineConnect=0;portConstraint=eastwest;newEdgeStyle={&quot;edgeStyle&quot;:&quot;elbowEdgeStyle&quot;,&quot;elbow&quot;:&quot;vertical&quot;,&quot;curved&quot;:0,&quot;rounded&quot;:0};participant=umlActor;" vertex="1" parent="1">
          <mxGeometry x="-3252" y="2120" width="20" height="280" as="geometry" />
        </mxCell>
        <mxCell id="_FOaf6VlmmrGsk4NCt8F-13" style="edgeStyle=elbowEdgeStyle;rounded=0;orthogonalLoop=1;jettySize=auto;html=1;elbow=vertical;curved=0;" edge="1" parent="1" source="_FOaf6VlmmrGsk4NCt8F-5" target="_FOaf6VlmmrGsk4NCt8F-10">
          <mxGeometry relative="1" as="geometry">
            <mxPoint x="-2792" y="2240" as="targetPoint" />
            <Array as="points">
              <mxPoint x="-2802" y="2250" />
            </Array>
          </mxGeometry>
        </mxCell>
        <mxCell id="_FOaf6VlmmrGsk4NCt8F-14" value=":Single Product" style="shape=umlLifeline;perimeter=lifelinePerimeter;whiteSpace=wrap;html=1;container=1;dropTarget=0;collapsible=0;recursiveResize=0;outlineConnect=0;portConstraint=eastwest;newEdgeStyle={&quot;edgeStyle&quot;:&quot;elbowEdgeStyle&quot;,&quot;elbow&quot;:&quot;vertical&quot;,&quot;curved&quot;:0,&quot;rounded&quot;:0};" vertex="1" parent="1">
          <mxGeometry x="-2636" y="2120" width="100" height="280" as="geometry" />
        </mxCell>
        <mxCell id="_FOaf6VlmmrGsk4NCt8F-15" value="" style="html=1;points=[];perimeter=orthogonalPerimeter;outlineConnect=0;targetShapes=umlLifeline;portConstraint=eastwest;newEdgeStyle={&quot;edgeStyle&quot;:&quot;elbowEdgeStyle&quot;,&quot;elbow&quot;:&quot;vertical&quot;,&quot;curved&quot;:0,&quot;rounded&quot;:0};" vertex="1" parent="_FOaf6VlmmrGsk4NCt8F-14">
          <mxGeometry x="45" y="160" width="10" height="100" as="geometry" />
        </mxCell>
        <mxCell id="_FOaf6VlmmrGsk4NCt8F-16" value="Selección de producto" style="text;html=1;strokeColor=none;fillColor=none;align=center;verticalAlign=middle;whiteSpace=wrap;rounded=0;" vertex="1" parent="1">
          <mxGeometry x="-2696" y="2270" width="90" height="30" as="geometry" />
        </mxCell>
        <mxCell id="_FOaf6VlmmrGsk4NCt8F-17" style="edgeStyle=elbowEdgeStyle;rounded=0;orthogonalLoop=1;jettySize=auto;html=1;elbow=vertical;curved=0;" edge="1" parent="1" source="_FOaf6VlmmrGsk4NCt8F-10" target="_FOaf6VlmmrGsk4NCt8F-15">
          <mxGeometry relative="1" as="geometry" />
        </mxCell>
      </root>
    </mxGraphModel>
  </diagram>
</mxfile>
